<svg width="509px" height="811px" viewBox="0 0 509 811" version="1.1" xmlns="http://www.w3.org/2000/svg"
>
    <g id="tada" stroke="none" stroke-width="1" fill="none" fill-rule="evenodd">
        <path d="M 194.5,660
           C 194.5,743.118855 261.881145,810.5 345,810.5
           C 392.548231,810.5 431.872984,771.391829 431.872984,723.149455
           C 431.872984,680.808999 401.581557,645.504519 361.37491,637.5
           C 290.715561,621.431263 229.356785,574.033996 194.5,509.5
           L 194.5,660.5
           Z"
              id="rb"
              stroke="none"
              fill="steelblue"/>

        <path d="M 194.5,132.5
           L 419,132.5
           C 322.114337,132.5 237.823932,186.426708 194.5,265.901836
           L 194.5,132.5 Z"
              fill="skyblue" stroke="none"/>

        <path d="M 194.5,265.901836
           L 194.5,320.5
           L 414.5,320.5
           C 466.414766,320.5 508.5,278.414766 508.5,226.5
           C 508.5,174.585234 466.414766,132.5 414.5,132.5
           L 419,132.5
           C 322.114337,132.5 237.823932,186.426708 194.5,265.901836 Z"
              fill="steelblue" stroke="none"/>

        <path d="M 0.5,90.5
           C 0.5,40.7943725 40.7943725,0.5 90.5,0.5
           C 140.205627,0.5 180.5,40.7943725 180.5,90.5
           L 180.5,492.5
           L 180.5,646.5
           C 180.5,652.5 180.2,658.5 180.5,665
           C 180.5,726.086765 215.894314,778.673183 268.182754,802.259064
           C 116.79566,780.539233 0.5,650.35077 0.5,493
           L 0.5,90.5
           Z"
              id="l"
              stroke="none"
              fill="skyblue"
              stroke-width="1"/>
    </g>
</svg>